# xmcd
# 
# Track frame offsets:
#     150
#     20307
#     37857
#     51362
#     61780
#     89080
#     123622
#     142560
#     170720
#     191315
# 
# Disc length: 3096
# 
# Revision: 8
# Processed by: cddbd v1.5.2PL0 Copyright (c) Steve Scherf et al.
# Submitted via: BonkEnc v1.0.15
# 
DISCID=7e0c160a
DTITLE=Santana - Caravanserai (Remastered)
DYEAR=1972
DGENRE=Rock
TTITLE0=Eternal Caravan Of Reincarnation
TTITLE1=Waves Within
TTITLE2=Look Up (To See What's Coming Down)
TTITLE3=Just In Time To See The Sun
TTITLE4=Song Of The Wind
TTITLE5=All The Love Of The Universe
TTITLE6=Future Primitive
TTITLE7=Stone Flower
TTITLE8=La Fuente Del Ritmo
TTITLE9=Every Step Of The Way
EXTD=Remastered 2003\nOriginal Year:1972 YEAR: 1972
EXTT0=
EXTT1=
EXTT2=
EXTT3=
EXTT4=
EXTT5=
EXTT6=
EXTT7=
EXTT8=
EXTT9=
PLAYORDER=
